<?xml version="1.0" standalone="yes"?>
<svg xmlns="http://www.w3.org/2000/svg" width="900" height="900">
<path style="fill:#ffffff; stroke:none;" d="M0 0L0 900L900 900L900 0L0 0z"/>
<path style="fill:#de5bf8; stroke:none;" d="M363 235L364 236L363 235z"/>
<path style="fill:#330774; stroke:none;" d="M350 239L350 240L365 237L366 243L367 243L366 235L350 239z"/>
<path style="fill:#de5bf8; stroke:none;" d="M531 259C531.071 284.886 535.312 309.921 532.83 336C527.906 387.744 516.084 439.962 516 492C515.969 511.095 517.029 530.168 520.424 549C521.266 553.667 521.524 564.966 525.728 567.933C529.916 570.889 544.262 565.058 549 563.873C571.232 558.317 593.556 552.63 616 548C603.396 480.353 621.416 411.351 627.83 344C631.349 307.051 628.477 271.222 621 235L531 259M359 236L360 237L359 236z"/>
<path style="fill:#9f2ff4; stroke:none;" d="M360 236L361 237L360 236z"/>
<path style="fill:#de5bf8; stroke:none;" d="M355.667 237.333L356.333 237.667L355.667 237.333z"/>
<path style="fill:#4f02a3; stroke:none;" d="M346 240C341.505 243.927 334.609 244.314 329 246.025C315.024 250.288 294.564 259.324 280 258L278 284C280.477 287.27 280 290.999 280 295C280.001 303.802 283.387 321.89 278 329C280.204 338.258 277.344 346.792 276.82 356C275.319 382.41 269.89 408.72 266.95 435C265.91 444.291 267.409 464.86 262 472L263 495L262 495L262 493L261 493L261 505L262 505L262 503L263 503L263 533C270.483 542.829 262.07 563.913 277 568C277 564.94 285.895 564.443 289 563.667C300.19 560.869 319.977 552.099 331 555L340 553C340 550.564 340.786 551.385 343 552L359 547L357 529L355 500L357 490L356 480L359 458L361.135 429L364 416C362.304 408.619 363.348 392.109 368 386L370.771 352.999L373 343L372.792 285L368 243L365 237L346 240z"/>
<path style="fill:#de5bf8; stroke:none;" d="M366.333 237.667L366.667 238.333L366.333 237.667M352 238L353 239L352 238M348 239L349 240L348 239z"/>
<path style="fill:#9f2ff4; stroke:none;" d="M349 239L350 240L349 239M366 239L367 240L366 239z"/>
<path style="fill:#de5bf8; stroke:none;" d="M344 240L345 241L344 240z"/>
<path style="fill:#9f2ff4; stroke:none;" d="M345 240L346 241L345 240z"/>
<path style="fill:#330774; stroke:none;" d="M347.667 240.333L348.333 240.667L347.667 240.333z"/>
<path style="fill:#de5bf8; stroke:none;" d="M341 241L342 242L341 241z"/>
<path style="fill:#9f2ff4; stroke:none;" d="M342 241L343 242L342 241z"/>
<path style="fill:#330774; stroke:none;" d="M343 241L343 242L346 242L343 241z"/>
<path style="fill:#de5bf8; stroke:none;" d="M367.333 241.667L367.667 242.333L367.333 241.667M337 242L338 243L337 242z"/>
<path style="fill:#9f2ff4; stroke:none;" d="M338 242L339 243L338 242z"/>
<path style="fill:#330774; stroke:none;" d="M339 242L339 243L343 243L339 242z"/>
<path style="fill:#de5bf8; stroke:none;" d="M333 243L334 244L333 243z"/>
<path style="fill:#9f2ff4; stroke:none;" d="M334 243L335 244L334 243z"/>
<path style="fill:#330774; stroke:none;" d="M335 243L335 244L339 244L335 243z"/>
<path style="fill:#de5bf8; stroke:none;" d="M330 244L331 245L330 244z"/>
<path style="fill:#9f2ff4; stroke:none;" d="M331 244L332 245L331 244z"/>
<path style="fill:#330774; stroke:none;" d="M332 244L332 245L335 245L332 244M367 244L369 258L370 258L367 244z"/>
<path style="fill:#de5bf8; stroke:none;" d="M326 245L327 246L326 245z"/>
<path style="fill:#9f2ff4; stroke:none;" d="M327 245L328 246L327 245z"/>
<path style="fill:#330774; stroke:none;" d="M328 245L328 246L331 246L328 245z"/>
<path style="fill:#de5bf8; stroke:none;" d="M322.667 246.333L323.333 246.667L322.667 246.333z"/>
<path style="fill:#330774; stroke:none;" d="M317 248L317 249L328 247L317 248z"/>
<path style="fill:#de5bf8; stroke:none;" d="M368 246L369 247L368 246M319 247L320 248L319 247z"/>
<path style="fill:#9f2ff4; stroke:none;" d="M368 247L369 248L368 247z"/>
<path style="fill:#de5bf8; stroke:none;" d="M315 248L316 249L315 248z"/>
<path style="fill:#9f2ff4; stroke:none;" d="M316 248L317 249L316 248z"/>
<path style="fill:#de5bf8; stroke:none;" d="M311.667 249.333L312.333 249.667L311.667 249.333z"/>
<path style="fill:#9f2ff4; stroke:none;" d="M313 249L314 250L313 249z"/>
<path style="fill:#330774; stroke:none;" d="M314.667 249.333L315.333 249.667L314.667 249.333z"/>
<path style="fill:#de5bf8; stroke:none;" d="M308 250L309 251L308 250z"/>
<path style="fill:#9f2ff4; stroke:none;" d="M309 250L310 251L309 250z"/>
<path style="fill:#330774; stroke:none;" d="M310 250L310 251L313 251L310 250z"/>
<path style="fill:#de5bf8; stroke:none;" d="M369.333 250.667L369.667 251.333L369.333 250.667M304 251L305 252L304 251z"/>
<path style="fill:#9f2ff4; stroke:none;" d="M305 251L306 252L305 251z"/>
<path style="fill:#330774; stroke:none;" d="M306 251L306 252L310 252L306 251z"/>
<path style="fill:#de5bf8; stroke:none;" d="M300 252L301 253L300 252z"/>
<path style="fill:#9f2ff4; stroke:none;" d="M301 252L302 253L301 252z"/>
<path style="fill:#330774; stroke:none;" d="M299 253L299 254L305 253L299 253z"/>
<path style="fill:#9f2ff4; stroke:none;" d="M369 252L370 253L369 252z"/>
<path style="fill:#de5bf8; stroke:none;" d="M297 253L298 254L297 253z"/>
<path style="fill:#9f2ff4; stroke:none;" d="M298 253L299 254L298 253z"/>
<path style="fill:#de5bf8; stroke:none;" d="M293 254L294 255L293 254z"/>
<path style="fill:#9f2ff4; stroke:none;" d="M294 254L295 255L294 254z"/>
<path style="fill:#330774; stroke:none;" d="M295 254L295 255L298 255L295 254z"/>
<path style="fill:#de5bf8; stroke:none;" d="M289.667 255.333L290.333 255.667L289.667 255.333z"/>
<path style="fill:#330774; stroke:none;" d="M291 255L291 256L295 256L291 255z"/>
<path style="fill:#de5bf8; stroke:none;" d="M285.667 256.333L286.333 256.667L285.667 256.333z"/>
<path style="fill:#330774; stroke:none;" d="M287 256L287 257L291 257L287 256z"/>
<path style="fill:#de5bf8; stroke:none;" d="M370.333 256.667L370.667 257.333L370.333 256.667M282 257L283 258L282 257z"/>
<path style="fill:#330774; stroke:none;" d="M281 258L281 259L287 258L281 258z"/>
<path style="fill:#de5bf8; stroke:none;" d="M278 258L279 259L278 258z"/>
<path style="fill:#9f2ff4; stroke:none;" d="M279 258L280 259L279 258M370 258L371 259L370 258z"/>
<path style="fill:#de5bf8; stroke:none;" d="M275.333 259.667L275.667 260.333L275.333 259.667z"/>
<path style="fill:#330774; stroke:none;" d="M276 259L276 263L277 263L280 260L276 259M370 259L370 265L371 265L370 259z"/>
<path style="fill:#de5bf8; stroke:none;" d="M371.333 262.667L371.667 263.333L371.333 262.667z"/>
<path style="fill:#9f2ff4; stroke:none;" d="M276.333 264.667L276.667 265.333L276.333 264.667M371.333 264.667L371.667 265.333L371.333 264.667z"/>
<path style="fill:#330774; stroke:none;" d="M277 265L277 271L278 271L277 265z"/>
<path style="fill:#de5bf8; stroke:none;" d="M276.333 266.667L276.667 267.333L276.333 266.667z"/>
<path style="fill:#330774; stroke:none;" d="M371 267L371 272L372 272L371 267z"/>
<path style="fill:#de5bf8; stroke:none;" d="M372.333 269.667L372.667 270.333L372.333 269.667z"/>
<path style="fill:#9f2ff4; stroke:none;" d="M277.333 271.667L277.667 272.333L277.333 271.667M372.333 271.667L372.667 272.333L372.333 271.667z"/>
<path style="fill:#330774; stroke:none;" d="M278 272L278 283L279 283L278 272z"/>
<path style="fill:#de5bf8; stroke:none;" d="M277 273L277 277L278 277L277 273z"/>
<path style="fill:#330774; stroke:none;" d="M372 273L372 283L373 283L372 273z"/>
<path style="fill:#de5bf8; stroke:none;" d="M373 278L373 283L374 283L373 278z"/>
<path style="fill:#9f2ff4; stroke:none;" d="M373.333 283.667L373.667 284.333L373.333 283.667M278 284L279 285L278 284z"/>
<path style="fill:#330774; stroke:none;" d="M279 284L279 329L280 329C280 316.258 283.91 295.701 279 284z"/>
<path style="fill:#de5bf8; stroke:none;" d="M278 285L278 293L279 293L278 285z"/>
<path style="fill:#330774; stroke:none;" d="M373 285L373 327L374 327C374 315.043 377.611 295.988 373 285z"/>
<path style="fill:#de5bf8; stroke:none;" d="M374 297L374 315L375 315L374 297M278 319L278 327L279 327L278 319z"/>
<path style="fill:#9f2ff4; stroke:none;" d="M278.333 327.667L278.667 328.333L278.333 327.667M373.333 328.667L373.667 329.333L373.333 328.667z"/>
<path style="fill:#330774; stroke:none;" d="M278 330L277 353L278 353L278 330M372 330L372 342L373 342L372 330z"/>
<path style="fill:#de5bf8; stroke:none;" d="M373 330L373 335L374 335L373 330M491.667 336.333L492.333 336.667L491.667 336.333M277 337L277 342L278 342L277 337M488 337L489 338L488 337z"/>
<path style="fill:#9f2ff4; stroke:none;" d="M399 361L399 670L468.08 654.439L491.972 647.546L493 625L493 565L493 338L462 344.613L399 361z"/>
<path style="fill:#4f02a3; stroke:none;" d="M490 337L490 338L493 338L490 337z"/>
<path style="fill:#de5bf8; stroke:none;" d="M483.667 338.333L484.333 338.667L483.667 338.333z"/>
<path style="fill:#4f02a3; stroke:none;" d="M486 338L487 339L486 338z"/>
<path style="fill:#de5bf8; stroke:none;" d="M480.667 339.333L481.333 339.667L480.667 339.333z"/>
<path style="fill:#4f02a3; stroke:none;" d="M483 339L484 340L483 339z"/>
<path style="fill:#de5bf8; stroke:none;" d="M476.667 340.333L477.333 340.667L476.667 340.333z"/>
<path style="fill:#4f02a3; stroke:none;" d="M479 340L480 341L479 340z"/>
<path style="fill:#de5bf8; stroke:none;" d="M472.667 341.333L473.333 341.667L472.667 341.333z"/>
<path style="fill:#4f02a3; stroke:none;" d="M474 341L474 342L477 342L474 341z"/>
<path style="fill:#9f2ff4; stroke:none;" d="M277.333 342.667L277.667 343.333L277.333 342.667z"/>
<path style="fill:#de5bf8; stroke:none;" d="M468 342L469 343L468 342z"/>
<path style="fill:#4f02a3; stroke:none;" d="M470.667 342.333L471.333 342.667L470.667 342.333z"/>
<path style="fill:#330774; stroke:none;" d="M371 343L371 350L372 350L371 343z"/>
<path style="fill:#9f2ff4; stroke:none;" d="M372 343L373 344L372 343z"/>
<path style="fill:#de5bf8; stroke:none;" d="M464.667 343.333L465.333 343.667L464.667 343.333M372 344L372 347L373 347L372 344M460.667 344.333L461.333 344.667L460.667 344.333z"/>
<path style="fill:#4f02a3; stroke:none;" d="M463.667 344.333L464.333 344.667L463.667 344.333z"/>
<path style="fill:#de5bf8; stroke:none;" d="M456.667 345.333L457.333 345.667L456.667 345.333z"/>
<path style="fill:#4f02a3; stroke:none;" d="M459.667 345.333L460.333 345.667L459.667 345.333z"/>
<path style="fill:#de5bf8; stroke:none;" d="M452.667 346.333L453.333 346.667L452.667 346.333z"/>
<path style="fill:#4f02a3; stroke:none;" d="M455.667 346.333L456.333 346.667L455.667 346.333z"/>
<path style="fill:#de5bf8; stroke:none;" d="M449 347L450 348L449 347z"/>
<path style="fill:#4f02a3; stroke:none;" d="M451.667 347.333L452.333 347.667L451.667 347.333z"/>
<path style="fill:#de5bf8; stroke:none;" d="M445.667 348.333L446.333 348.667L445.667 348.333M276.333 349.667L276.667 350.333L276.333 349.667M441.667 349.333L442.333 349.667L441.667 349.333z"/>
<path style="fill:#4f02a3; stroke:none;" d="M444 349L445 350L444 349z"/>
<path style="fill:#de5bf8; stroke:none;" d="M437.667 350.333L438.333 350.667L437.667 350.333z"/>
<path style="fill:#4f02a3; stroke:none;" d="M440 350L441 351L440 350z"/>
<path style="fill:#9f2ff4; stroke:none;" d="M276 351L276 354L277 354L276 351M371 351L371 354L372 354L371 351z"/>
<path style="fill:#de5bf8; stroke:none;" d="M433.667 351.333L434.333 351.667L433.667 351.333z"/>
<path style="fill:#4f02a3; stroke:none;" d="M435.667 351.333L436.333 351.667L435.667 351.333z"/>
<path style="fill:#de5bf8; stroke:none;" d="M429.667 352.333L430.333 352.667L429.667 352.333z"/>
<path style="fill:#330774; stroke:none;" d="M370 353L369 361L370 353z"/>
<path style="fill:#de5bf8; stroke:none;" d="M425.667 353.333L426.333 353.667L425.667 353.333z"/>
<path style="fill:#4f02a3; stroke:none;" d="M429 353L430 354L429 353z"/>
<path style="fill:#de5bf8; stroke:none;" d="M371 354L371 357L372 357L371 354M421.667 354.333L422.333 354.667L421.667 354.333z"/>
<path style="fill:#4f02a3; stroke:none;" d="M424.667 354.333L425.333 354.667L424.667 354.333z"/>
<path style="fill:#330774; stroke:none;" d="M276 355L273 386L274 386L276 355z"/>
<path style="fill:#de5bf8; stroke:none;" d="M418 355L419 356L418 355z"/>
<path style="fill:#4f02a3; stroke:none;" d="M420.667 355.333L421.333 355.667L420.667 355.333z"/>
<path style="fill:#de5bf8; stroke:none;" d="M414 356L415 357L414 356z"/>
<path style="fill:#4f02a3; stroke:none;" d="M416.667 356.333L417.333 356.667L416.667 356.333z"/>
<path style="fill:#de5bf8; stroke:none;" d="M410.667 357.333L411.333 357.667L410.667 357.333z"/>
<path style="fill:#4f02a3; stroke:none;" d="M413 357L414 358L413 357z"/>
<path style="fill:#de5bf8; stroke:none;" d="M275 358L275 361L276 361L275 358M406.667 358.333L407.333 358.667L406.667 358.333z"/>
<path style="fill:#4f02a3; stroke:none;" d="M409 358L410 359L409 358z"/>
<path style="fill:#de5bf8; stroke:none;" d="M402.667 359.333L403.333 359.667L402.667 359.333z"/>
<path style="fill:#4f02a3; stroke:none;" d="M405 359L406 360L405 359z"/>
<path style="fill:#de5bf8; stroke:none;" d="M398 360C395.636 367.999 397 377.688 397 386L397 435L397 598L397 652C397 657.51 394.88 667.681 400 671L400 670L398 650L398 601L398 425L398 380L400 361L398 360z"/>
<path style="fill:#4f02a3; stroke:none;" d="M400.667 360.333L401.333 360.667L400.667 360.333z"/>
<path style="fill:#9f2ff4; stroke:none;" d="M275 361L276 362L275 361M370.333 361.667L370.667 362.333L370.333 361.667z"/>
<path style="fill:#4f02a3; stroke:none;" d="M398 361L398 670L399 670L399 452L399 389L398 361z"/>
<path style="fill:#330774; stroke:none;" d="M369 362L368 379L369 379L369 362z"/>
<path style="fill:#de5bf8; stroke:none;" d="M370 363L370 366L371 366L370 363M274 367L274 370L275 370L274 367z"/>
<path style="fill:#9f2ff4; stroke:none;" d="M274 370L275 371L274 370M369 370L370 371L369 370z"/>
<path style="fill:#de5bf8; stroke:none;" d="M369 371L369 374L370 374L369 371M273 375L273 378L274 378L273 375z"/>
<path style="fill:#9f2ff4; stroke:none;" d="M273 378L274 379L273 378M368 379L369 380L368 379z"/>
<path style="fill:#330774; stroke:none;" d="M367 380L367 385L368 385L367 380z"/>
<path style="fill:#de5bf8; stroke:none;" d="M368.333 380.667L368.667 381.333L368.333 380.667M272 383L272 386L273 386L272 383z"/>
<path style="fill:#9f2ff4; stroke:none;" d="M272 386L273 387L272 386z"/>
<path style="fill:#330774; stroke:none;" d="M366 386L366 392L367 392L366 386z"/>
<path style="fill:#9f2ff4; stroke:none;" d="M367 386L368 387L367 386z"/>
<path style="fill:#de5bf8; stroke:none;" d="M367 387L367 390L368 390L367 387z"/>
<path style="fill:#330774; stroke:none;" d="M272 388L272 393L273 393L272 388z"/>
<path style="fill:#de5bf8; stroke:none;" d="M271.333 390.667L271.667 391.333L271.333 390.667z"/>
<path style="fill:#9f2ff4; stroke:none;" d="M271.333 392.667L271.667 393.333L271.333 392.667M366.333 392.667L366.667 393.333L366.333 392.667z"/>
<path style="fill:#330774; stroke:none;" d="M365 393L363 415L364 415L365 393z"/>
<path style="fill:#de5bf8; stroke:none;" d="M366 394L366 397L367 397L366 394z"/>
<path style="fill:#330774; stroke:none;" d="M271 395L271 400L272 400L271 395z"/>
<path style="fill:#de5bf8; stroke:none;" d="M270.333 398.667L270.667 399.333L270.333 398.667z"/>
<path style="fill:#9f2ff4; stroke:none;" d="M270 400L271 401L270 400M365 400L366 401L365 400z"/>
<path style="fill:#330774; stroke:none;" d="M270 401L270 408L271 408L270 401z"/>
<path style="fill:#de5bf8; stroke:none;" d="M365 401L365 404L366 404L365 401M269 405L269 408L270 408L269 405z"/>
<path style="fill:#9f2ff4; stroke:none;" d="M269 408L270 409L269 408M364 408L365 409L364 408z"/>
<path style="fill:#330774; stroke:none;" d="M269 409L269 416L270 416L269 409z"/>
<path style="fill:#de5bf8; stroke:none;" d="M364 409L364 412L365 412L364 409M268 412L268 415L269 415L268 412z"/>
<path style="fill:#9f2ff4; stroke:none;" d="M268.333 415.667L268.667 416.333L268.333 415.667z"/>
<path style="fill:#330774; stroke:none;" d="M362 416L362 422L363 422L362 416z"/>
<path style="fill:#9f2ff4; stroke:none;" d="M363 416L364 417L363 416z"/>
<path style="fill:#330774; stroke:none;" d="M268 417L268 423L269 423L268 417z"/>
<path style="fill:#de5bf8; stroke:none;" d="M363.333 417.667L363.667 418.333L363.333 417.667M267.333 420.667L267.667 421.333L267.333 420.667z"/>
<path style="fill:#9f2ff4; stroke:none;" d="M267.333 422.667L267.667 423.333L267.333 422.667M362.333 422.667L362.667 423.333L362.333 422.667z"/>
<path style="fill:#330774; stroke:none;" d="M361 423L361 429L362 429L361 423z"/>
<path style="fill:#de5bf8; stroke:none;" d="M362.333 424.667L362.667 425.333L362.333 424.667z"/>
<path style="fill:#330774; stroke:none;" d="M267 425L266 439L267 439L267 425z"/>
<path style="fill:#de5bf8; stroke:none;" d="M266 427L266 430L267 430L266 427z"/>
<path style="fill:#330774; stroke:none;" d="M360 429L361 430L360 429z"/>
<path style="fill:#9f2ff4; stroke:none;" d="M266 430L267 431L266 430M361.333 430.667L361.667 431.333L361.333 430.667z"/>
<path style="fill:#330774; stroke:none;" d="M360 431L358 457L359 457L360 431z"/>
<path style="fill:#de5bf8; stroke:none;" d="M361 432L361 435L362 435L361 432M265 435L265 438L266 438L265 435z"/>
<path style="fill:#9f2ff4; stroke:none;" d="M265.333 438.667L265.667 439.333L265.333 438.667M360 439L361 440L360 439z"/>
<path style="fill:#330774; stroke:none;" d="M265 440L265 448L266 448L265 440z"/>
<path style="fill:#de5bf8; stroke:none;" d="M360 440L360 443L361 443L360 440M264 444L264 448L265 448L264 444z"/>
<path style="fill:#9f2ff4; stroke:none;" d="M264 448L265 449L264 448M359.333 448.667L359.667 449.333L359.333 448.667z"/>
<path style="fill:#330774; stroke:none;" d="M264 450L264 459L265 459L264 450z"/>
<path style="fill:#de5bf8; stroke:none;" d="M359 450L359 453L360 453L359 450M263 454L263 458L264 458L263 454z"/>
<path style="fill:#330774; stroke:none;" d="M357 457L357 467L358 467L357 457z"/>
<path style="fill:#9f2ff4; stroke:none;" d="M263.333 458.667L263.667 459.333L263.333 458.667M358.333 458.667L358.667 459.333L358.333 458.667z"/>
<path style="fill:#de5bf8; stroke:none;" d="M358 460L358 464L359 464L358 460z"/>
<path style="fill:#330774; stroke:none;" d="M263 461L263 472L264 472L263 461z"/>
<path style="fill:#de5bf8; stroke:none;" d="M262 465L262 469L263 469L262 465z"/>
<path style="fill:#9f2ff4; stroke:none;" d="M357 468L357 473L358 473L357 468M262 469L262 472L263 472L262 469z"/>
<path style="fill:#330774; stroke:none;" d="M356 471L356 489L357 489L356 471z"/>
<path style="fill:#de5bf8; stroke:none;" d="M357 473L357 478L358 478L357 473z"/>
<path style="fill:#330774; stroke:none;" d="M262 474L262 495L263 495L262 474z"/>
<path style="fill:#de5bf8; stroke:none;" d="M261 481L261 489L262 489L261 481z"/>
<path style="fill:#9f2ff4; stroke:none;" d="M261 489L261 493L262 493L261 489M356 490L356 507L357 507L356 490z"/>
<path style="fill:#330774; stroke:none;" d="M355 494L355 501L356 501L355 494M262 503L262 522L263 522L262 503z"/>
<path style="fill:#9f2ff4; stroke:none;" d="M261 505L261 508L262 508L261 505z"/>
<path style="fill:#de5bf8; stroke:none;" d="M261 508L261 516L262 516L261 508z"/>
<path style="fill:#330774; stroke:none;" d="M356 508L356 524L357 524L356 508z"/>
<path style="fill:#de5bf8; stroke:none;" d="M357 518L357 523L358 523L357 518z"/>
<path style="fill:#9f2ff4; stroke:none;" d="M262 523L262 526L263 526L262 523M357 523L357 526L358 526L357 523z"/>
<path style="fill:#330774; stroke:none;" d="M263 524L263 532L264 532L263 524z"/>
<path style="fill:#de5bf8; stroke:none;" d="M262 526L262 529L263 529L262 526z"/>
<path style="fill:#330774; stroke:none;" d="M357 527L357 547L357 548C362.32 546.86 359.169 530.765 357 527z"/>
<path style="fill:#de5bf8; stroke:none;" d="M358 530L358 533L359 533L358 530z"/>
<path style="fill:#9f2ff4; stroke:none;" d="M263.333 533.667L263.667 534.333L263.333 533.667z"/>
<path style="fill:#330774; stroke:none;" d="M264 533L266 541L264 533z"/>
<path style="fill:#9f2ff4; stroke:none;" d="M358.333 533.667L358.667 534.333L358.333 533.667z"/>
<path style="fill:#de5bf8; stroke:none;" d="M263 535L263 538L264 538L263 535M359 538L359 541L360 541L359 538z"/>
<path style="fill:#9f2ff4; stroke:none;" d="M264 541L265 542L264 541z"/>
<path style="fill:#de5bf8; stroke:none;" d="M264.333 542.667L264.667 543.333L264.333 542.667z"/>
<path style="fill:#330774; stroke:none;" d="M265 542L267 557L268 557L265 542z"/>
<path style="fill:#de5bf8; stroke:none;" d="M360 545L360 548L361 548L360 545M265.333 548.667L265.667 549.333L265.333 548.667z"/>
<path style="fill:#330774; stroke:none;" d="M343 550L343 551L356 549L343 550z"/>
<path style="fill:#9f2ff4; stroke:none;" d="M356 548L357 549L356 548z"/>
<path style="fill:#de5bf8; stroke:none;" d="M357 548L358 549L357 548M352.667 549.333L353.333 549.667L352.667 549.333z"/>
<path style="fill:#9f2ff4; stroke:none;" d="M347 550L348 551L347 550z"/>
<path style="fill:#de5bf8; stroke:none;" d="M348.667 550.333L349.333 550.667L348.667 550.333z"/>
<path style="fill:#330774; stroke:none;" d="M339 551L339 552L342 552L339 551z"/>
<path style="fill:#9f2ff4; stroke:none;" d="M343 551L344 552L343 551z"/>
<path style="fill:#de5bf8; stroke:none;" d="M344 551L345 552L344 551z"/>
<path style="fill:#330774; stroke:none;" d="M331 553L331 554L339 553L331 553z"/>
<path style="fill:#de5bf8; stroke:none;" d="M340 552L341 553L340 552z"/>
<path style="fill:#9f2ff4; stroke:none;" d="M266 553L267 554L266 553M335 553L336 554L335 553z"/>
<path style="fill:#de5bf8; stroke:none;" d="M336 553L337 554L336 553M266 554L267 555L266 554z"/>
<path style="fill:#330774; stroke:none;" d="M323 555L323 556L330 555L323 555z"/>
<path style="fill:#de5bf8; stroke:none;" d="M331.667 554.333L332.333 554.667L331.667 554.333z"/>
<path style="fill:#9f2ff4; stroke:none;" d="M326 555L327 556L326 555z"/>
<path style="fill:#de5bf8; stroke:none;" d="M327.667 555.333L328.333 555.667L327.667 555.333z"/>
<path style="fill:#330774; stroke:none;" d="M310 558L310 559L322 557L310 558z"/>
<path style="fill:#9f2ff4; stroke:none;" d="M322 556L323 557L322 556z"/>
<path style="fill:#de5bf8; stroke:none;" d="M323 556L324 557L323 556z"/>
<path style="fill:#9f2ff4; stroke:none;" d="M267 557L268 558L267 557z"/>
<path style="fill:#de5bf8; stroke:none;" d="M319 557L320 558L319 557M267.333 558.667L267.667 559.333L267.333 558.667z"/>
<path style="fill:#330774; stroke:none;" d="M268 558L270 569L276 568L276 567C270.303 566.092 270.588 562.284 268 558z"/>
<path style="fill:#9f2ff4; stroke:none;" d="M314 558L315 559L314 558z"/>
<path style="fill:#de5bf8; stroke:none;" d="M315 558L316 559L315 558z"/>
<path style="fill:#330774; stroke:none;" d="M289 563L289 564L309 560L289 563z"/>
<path style="fill:#9f2ff4; stroke:none;" d="M309 559L310 560L309 559z"/>
<path style="fill:#de5bf8; stroke:none;" d="M310.667 559.333L311.333 559.667L310.667 559.333z"/>
<path style="fill:#9f2ff4; stroke:none;" d="M305 560L306 561L305 560z"/>
<path style="fill:#de5bf8; stroke:none;" d="M306.667 560.333L307.333 560.667L306.667 560.333M302 561L303 562L302 561z"/>
<path style="fill:#9f2ff4; stroke:none;" d="M268 562L269 563L268 562z"/>
<path style="fill:#de5bf8; stroke:none;" d="M298 562L299 563L298 562M268 563L269 564L268 563z"/>
<path style="fill:#9f2ff4; stroke:none;" d="M293 563L294 564L293 563z"/>
<path style="fill:#de5bf8; stroke:none;" d="M294 563L295 564L294 563z"/>
<path style="fill:#330774; stroke:none;" d="M276 566L276 567L288 565L276 566z"/>
<path style="fill:#9f2ff4; stroke:none;" d="M288.667 564.333L289.333 564.667L288.667 564.333z"/>
<path style="fill:#de5bf8; stroke:none;" d="M290 564L291 565L290 564z"/>
<path style="fill:#9f2ff4; stroke:none;" d="M285 565L286 566L285 565z"/>
<path style="fill:#de5bf8; stroke:none;" d="M286 565L287 566L286 565z"/>
<path style="fill:#9f2ff4; stroke:none;" d="M269 566L270 567L269 566M281 566L282 567L281 566z"/>
<path style="fill:#de5bf8; stroke:none;" d="M282 566L283 567L282 566M269 567L270 568L269 567M277.667 567.333L278.333 567.667L277.667 567.333z"/>
<path style="fill:#9f2ff4; stroke:none;" d="M272 568L273 569L272 568z"/>
<path style="fill:#de5bf8; stroke:none;" d="M273 568L274 569L273 568z"/>
<path style="fill:#4f02a3; stroke:none;" d="M492 648L493 649L492 648M487.667 649.333L488.333 649.667L487.667 649.333z"/>
<path style="fill:#de5bf8; stroke:none;" d="M490.667 649.333L491.333 649.667L490.667 649.333z"/>
<path style="fill:#4f02a3; stroke:none;" d="M483 650L484 651L483 650z"/>
<path style="fill:#de5bf8; stroke:none;" d="M486 650L487 651L486 650z"/>
<path style="fill:#4f02a3; stroke:none;" d="M478.667 651.333L479.333 651.667L478.667 651.333z"/>
<path style="fill:#de5bf8; stroke:none;" d="M481 651L481 652L484 652L481 651z"/>
<path style="fill:#4f02a3; stroke:none;" d="M474 652L474 653L477 653L474 652z"/>
<path style="fill:#de5bf8; stroke:none;" d="M477.667 652.333L478.333 652.667L477.667 652.333z"/>
<path style="fill:#4f02a3; stroke:none;" d="M470 653L471 654L470 653z"/>
<path style="fill:#de5bf8; stroke:none;" d="M472 653L472 654L475 654L472 653z"/>
<path style="fill:#4f02a3; stroke:none;" d="M465 654L466 655L465 654z"/>
<path style="fill:#de5bf8; stroke:none;" d="M468.667 654.333L469.333 654.667L468.667 654.333M464.667 655.333L465.333 655.667L464.667 655.333z"/>
<path style="fill:#4f02a3; stroke:none;" d="M457.667 656.333L458.333 656.667L457.667 656.333z"/>
<path style="fill:#de5bf8; stroke:none;" d="M460 656L461 657L460 656z"/>
<path style="fill:#4f02a3; stroke:none;" d="M452.667 657.333L453.333 657.667L452.667 657.333z"/>
<path style="fill:#de5bf8; stroke:none;" d="M455.667 657.333L456.333 657.667L455.667 657.333z"/>
<path style="fill:#4f02a3; stroke:none;" d="M447.667 658.333L448.333 658.667L447.667 658.333z"/>
<path style="fill:#de5bf8; stroke:none;" d="M450.667 658.333L451.333 658.667L450.667 658.333z"/>
<path style="fill:#4f02a3; stroke:none;" d="M443 659L444 660L443 659z"/>
<path style="fill:#de5bf8; stroke:none;" d="M446.667 659.333L447.333 659.667L446.667 659.333z"/>
<path style="fill:#4f02a3; stroke:none;" d="M439.667 660.333L440.333 660.667L439.667 660.333z"/>
<path style="fill:#de5bf8; stroke:none;" d="M442.667 660.333L443.333 660.667L442.667 660.333z"/>
<path style="fill:#4f02a3; stroke:none;" d="M434 661L434 662L437 662L434 661z"/>
<path style="fill:#de5bf8; stroke:none;" d="M437 661L437 662L440 662L437 661z"/>
<path style="fill:#4f02a3; stroke:none;" d="M430.667 662.333L431.333 662.667L430.667 662.333z"/>
<path style="fill:#de5bf8; stroke:none;" d="M433.667 662.333L434.333 662.667L433.667 662.333z"/>
<path style="fill:#4f02a3; stroke:none;" d="M425.667 663.333L426.333 663.667L425.667 663.333z"/>
<path style="fill:#de5bf8; stroke:none;" d="M428 663L428 664L431 664L428 663M424.667 664.333L425.333 664.667L424.667 664.333z"/>
<path style="fill:#4f02a3; stroke:none;" d="M417.667 665.333L418.333 665.667L417.667 665.333z"/>
<path style="fill:#de5bf8; stroke:none;" d="M420.667 665.333L421.333 665.667L420.667 665.333z"/>
<path style="fill:#4f02a3; stroke:none;" d="M413.667 666.333L414.333 666.667L413.667 666.333z"/>
<path style="fill:#de5bf8; stroke:none;" d="M415.667 666.333L416.333 666.667L415.667 666.333z"/>
<path style="fill:#4f02a3; stroke:none;" d="M408.667 667.333L409.333 667.667L408.667 667.333z"/>
<path style="fill:#de5bf8; stroke:none;" d="M411.667 667.333L412.333 667.667L411.667 667.333z"/>
<path style="fill:#4f02a3; stroke:none;" d="M403.667 668.333L404.333 668.667L403.667 668.333z"/>
<path style="fill:#de5bf8; stroke:none;" d="M406.667 668.333L407.333 668.667L406.667 668.333z"/>
<path style="fill:#4f02a3; stroke:none;" d="M400.667 669.333L401.333 669.667L400.667 669.333z"/>
<path style="fill:#de5bf8; stroke:none;" d="M402.667 669.333L403.333 669.667L402.667 669.333z"/>
</svg>
